<?xml version="1.0" encoding="iso-8859-1"?>
<!-- Generator: Adobe Illustrator 21.0.0, SVG Export Plug-In . SVG Version: 6.00 Build 0)  -->
<svg xmlns="http://www.w3.org/2000/svg" xmlns:xlink="http://www.w3.org/1999/xlink" version="1.1" id="Capa_1" x="0px" y="0px" viewBox="0 0 512 512" style="enable-background:new 0 0 512 512;" xml:space="preserve" width="512" height="512">
<g>
	<g>
		<g>
			<path style="fill:#FCD82D;" d="M483.401,377.3c-4.501-4.801-12.001-6.301-18.001-3.301C442,386,417.1,392,391,392     c-80.7,0-148.2-59.5-162.299-136c-1.8-9.6-2.701-19.801-2.701-30c0-89.101,72.599-164.2,161.7-165.7     C394.6,60,400.3,55.499,402.1,48.9c1.5-6.601-1.5-13.5-7.5-16.8C357.1,11.1,314.2,0,271,0C130.3,0,16,115.3,16,256     s114.3,256,255,256c86.7,0,166.5-43.5,213.9-116.4C488.5,389.9,487.899,382.4,483.401,377.3z"/>
		</g>
	</g>
	<path style="fill:#FCD82D;" d="M421,181c-24.814,0-45-20.186-45-45c0-8.291-6.709-15-15-15s-15,6.709-15,15   c0,24.814-20.186,45-45,45c-8.291,0-15,6.709-15,15s6.709,15,15,15c24.814,0,45,20.186,45,45c0,8.291,6.709,15,15,15   s15-6.709,15-15c0-24.814,20.186-45,45-45c8.291,0,15-6.709,15-15S429.291,181,421,181z"/>
	<path style="fill:#F9BD13;" d="M481,271c-8.276,0-15-6.724-15-15c0-8.291-6.709-15-15-15s-15,6.709-15,15c0,8.276-6.724,15-15,15   c-8.291,0-15,6.709-15,15s6.709,15,15,15c8.276,0,15,6.724,15,15c0,8.291,6.709,15,15,15s15-6.709,15-15c0-8.276,6.724-15,15-15   c8.291,0,15-6.709,15-15S489.291,271,481,271z"/>
	<path style="fill:#F9BD13;" d="M484.9,395.6C437.5,468.5,357.7,512,271,512C130.3,512,16,396.7,16,256h212.701   C242.8,332.5,310.3,392,391,392c26.1,0,51-6,74.399-18.001c6-2.999,13.5-1.5,18.001,3.301C487.899,382.4,488.5,389.9,484.9,395.6z"/>
</g>















</svg>
